# xmcd
# Copyright (C) 1995-1998 Ti Kan
#
# Track frame offsets:
#       150
#       30358
#       60078
#       73041
#       117283
#       131596
#       150008
#       165563
#       181602
#       209297
#       235828
#       249879
#       268015
#       284035
#       305115
#       331330
#
# Disc length: 4624 seconds
#
# Revision: 0
# Processed by: cddbd v1.5.2PL0 Copyright (c) Steve Scherf et al.
# Submitted via: CD-Transfer v1.0
#
DISCID=d1120e10
DTITLE=Focus - T. Van Leer, J. Akkerman
DYEAR=1900
DGENRE=
TTITLE0=Hocus Pocus
TTITLE1=Anonymus
TTITLE2=House Of The King
TTITLE3=Focus
TTITLE4=Janis
TTITLE5=Focus Ii
TTITLE6=Tommy
TTITLE7=Sylvia
TTITLE8=Focus Iii
TTITLE9=Harem Scarem
TTITLE10=Mother Focus
TTITLE11=Focus Iv
TTITLE12=Bennie Helder
TTITLE13=Glider
TTITLE14=Red Sky At Night
TTITLE15=Hocus Pocus (Usa Single Vers.)
EXTD=
EXTT0=
EXTT1=
EXTT2=
EXTT3=
EXTT4=
EXTT5=
EXTT6=
EXTT7=
EXTT8=
EXTT9=
EXTT10=
EXTT11=
EXTT12=
EXTT13=
EXTT14=
EXTT15=
PLAYORDER=
